<svg xmlns="http://www.w3.org/2000/svg" viewBox="40 38 105 120" fill="currentColor"><path d="m47.3 88.7c4.2 14.2 11 27.4 20.4 39.5 6.4-8.2 13.8-15.4 22.1-21.6-17.4-11.9-34.3-16.4-42.5-17.9z"/><path d="m94.3 106.5c8.3 6.1 15.8 13.4 22.1 21.6 9.4-12 16.2-25.3 20.4-39.5-8.3 1.6-25.2 6.1-42.5 17.9z"/><path d="m92 108.1c-7.8 5.6-15.7 12.8-22.8 22 10.3 12.7 20.4 20 22.8 21.7 2.4-1.7 12.5-8.9 22.8-21.7-7.1-9.1-14.9-16.3-22.8-22z"/><path d="m104.2 43.9-12.2 60.7-12.2-60.7z"/><path d="m138.3 43.9-46.3 60.7 21.9-60.7z"/><path d="m45.7 43.9 46.3 60.7-21.8-60.7z"/><path d="m116.3 90c-15.3 7.7-24.3 14.6-24.3 14.6l46.3-48.7-.7 24.7s-7.5 2.5-21.3 9.4"/><path d="m67.8 90c15.2 7.7 24.2 14.6 24.2 14.6l-46.3-48.7.7 24.7s7.6 2.5 21.4 9.4"/></svg>
