<svg width="562.7" height="198.6" enable-background="new 0 0 562.7 198.6" viewBox="0 0 562.7 198.6" xmlns="http://www.w3.org/2000/svg"><g fill="#fff"><path d="m47.3 88.7c4.2 14.2 11 27.4 20.4 39.5 6.4-8.2 13.8-15.4 22.1-21.6-17.4-11.9-34.3-16.4-42.5-17.9zm27.3 20.2h-.4v.4c0 .5-.4 1-1 1-.5 0-1-.4-1-1v-.4h-2.3v2.3h.4c.5 0 1 .4 1 1 0 .5-.4 1-1 1h-.4v.4c0 .5-.4 1-1 1-.5 0-1-.4-1-1v-.4h-.4c-.5 0-1-.4-1-1 0-.5.4-1 1-1h.5v-2.3h-2.4v.4c0 .5-.4 1-1 1-.5 0-1-.4-1-1v-.4h-.4c-.5 0-1-.4-1-1 0-.5.4-1 1-1h.4v-.4c0-.5.4-1 1-1 .5 0 1 .4 1 1v.4h2.4v-2.4h-.4c-.5 0-1-.4-1-1 0-.5.4-1 1-1h.4v-.4c0-.5.4-1 1-1 .5 0 1 .4 1 1v.4h.4c.5 0 1 .4 1 1 0 .5-.4 1-1 1h-.4v2.4h2.3v-.4c0-.5.4-1 1-1 .5 0 1 .4 1 1v.4h.4c.5 0 1 .4 1 1-.1.6-.6 1-1.1 1z"/><path d="m94.3 106.5c8.3 6.1 15.8 13.4 22.1 21.6 9.4-12 16.2-25.3 20.4-39.5-8.3 1.6-25.2 6.1-42.5 17.9zm26.5 2.4h-.4v.4c0 .5-.4 1-1 1-.5 0-1-.4-1-1v-.4h-2.3v2.3h.4c.5 0 1 .4 1 1 0 .5-.4 1-1 1h-.4v.4c0 .5-.4 1-1 1-.5 0-1-.4-1-1v-.4h-.4c-.5 0-1-.4-1-1 0-.5.4-1 1-1h.4v-2.3h-2.4v.4c0 .5-.4 1-1 1-.5 0-1-.4-1-1v-.4h-.4c-.5 0-1-.4-1-1 0-.5.4-1 1-1h.4v-.4c0-.5.4-1 1-1 .5 0 1 .4 1 1v.4h2.4v-2.4h-.4c-.5 0-1-.4-1-1 0-.5.4-1 1-1h.4v-.4c0-.5.4-1 1-1 .5 0 1 .4 1 1v.4h.4c.5 0 1 .4 1 1 0 .5-.4 1-1 1h-.4v2.4h2.3v-.4c0-.5.4-1 1-1 .5 0 1 .4 1 1v.4h.4c.5 0 1 .4 1 1s-.4 1-1 1z"/><path d="m92 108.1c-7.8 5.6-15.7 12.8-22.8 22 10.3 12.7 20.4 20 22.8 21.7 2.4-1.7 12.5-8.9 22.8-21.7-7.1-9.1-14.9-16.3-22.8-22zm5.7 23h-.5v.4c0 .5-.4 1-1 1-.5 0-1-.4-1-1v-.4h-2.2v2.3h.4c.5 0 1 .4 1 1 0 .5-.4 1-1 1h-.4v.5c0 .5-.4 1-1 1-.5 0-1-.4-1-1v-.5h-.4c-.5 0-1-.4-1-1 0-.5.4-1 1-1h.4v-2.3h-2.4v.4c0 .5-.4 1-1 1-.5 0-1-.4-1-1v-.4h-.4c-.5 0-1-.4-1-1 0-.5.4-1 1-1h.4v-.4c0-.5.4-1 1-1 .5 0 1 .4 1 1v.4h2.4v-2.3h-.4c-.5 0-1-.4-1-1 0-.5.4-1 1-1h.4v-.4c0-.5.4-1 1-1 .5 0 1 .4 1 1v.4h.4c.5 0 1 .4 1 1 0 .5-.4 1-1 1h-.4v2.3h2.3v-.4c0-.5.4-1 1-1 .5 0 1 .4 1 1v.4h.5c.5 0 1 .4 1 1-.1.6-.6 1-1.1 1z"/><path d="m104.2 43.9-12.2 60.7-12.2-60.7z"/><path d="m138.3 43.9-46.3 60.7 21.9-60.7z"/><path d="m45.7 43.9 46.3 60.7-21.8-60.7z"/><path d="m116.3 90c-15.3 7.7-24.3 14.6-24.3 14.6l46.3-48.7-.7 24.7s-7.5 2.5-21.3 9.4"/><path d="m67.8 90c15.2 7.7 24.2 14.6 24.2 14.6l-46.3-48.7.7 24.7s7.6 2.5 21.4 9.4"/><path d="m440.2 128.6c.8-.1 1.5-.3 2.2-.6 0-.7 0-1.4-.1-2-.9.1-2.4.1-3.8.1-1.6 0-2.9-.1-4-.1-.1.7-.2 1.4-.2 2l2.6.5-3.1 6.1-3.3-6.1 2.4-.5c0-.7 0-1.4-.2-2-1.2.1-3 .1-4.6.1-1.9 0-3.5-.1-4.9-.1-.2.7-.2 1.4-.2 2.1.8.1 1.5.3 2.3.6l5.2 9.6v2.9c0 .6 0 1.2-.1 1.8-1.2.3-2.3.5-3.5.6 0 .7.1 1.4.3 2 1.5 0 3.3-.1 5.4-.1 1.9 0 4 0 5.4.1.2-.6.2-1.3.2-2-1-.3-2.1-.5-3.3-.6-.1-.8-.1-1.6-.1-2.4v-2.2zm-32.3.3c.2 1.2.4 2.6.4 3.9.8.2 1.6.2 2.6 0 .3-1.8.5-3.6.4-6.4l-.3-.3c-1.8.1-4.8.1-6.8.1h-3.9c-2 0-5 0-6.8-.1l-.4.3c-.1 2.8.1 4.6.4 6.4 1 .2 1.8.2 2.6 0 0-1.3.2-2.7.4-3.9h3.5v12.3c0 .6 0 1.2-.1 1.8-1.2.3-2.3.5-3.5.6 0 .7.1 1.4.3 2 1.5 0 3.3-.1 5.4-.1 1.9 0 4 0 5.4.1.2-.6.2-1.3.2-2-1-.3-2.1-.5-3.3-.6-.1-.8-.1-1.6-.1-2.4v-11.7zm-34.1-.3c.1 1.1.1 2.3.1 4v8.6c0 .6 0 1.2-.1 1.8-.8.3-1.7.5-2.5.6 0 .7.1 1.4.2 2 1.2 0 2.7-.1 4.6-.1 1.6 0 3.3 0 4.5.1.1-.6.2-1.3.2-2-.7-.3-1.5-.5-2.4-.6-.1-.8-.1-1.6-.1-2.4v-7.9c0-1.7 0-2.9.1-4 .9-.1 1.7-.3 2.4-.6 0-.7 0-1.4-.2-2-1.1.1-2.9.1-4.5.1-1.8 0-3.3-.1-4.6-.1-.2.7-.2 1.4-.2 2 .8 0 1.6.2 2.5.5m-29.5 15.9c1.6.8 4.3 1.4 7 1.4 4.4 0 7.2-3 7.2-6.7 0-2.8-2.1-4.2-4.1-5.1l-2.4-1.1c-1.3-.6-2.9-1.3-2.9-2.6 0-.8.3-1.3.7-1.7.1-.1 1.1-.3 1.9-.3 1.3 0 2.1.1 2.9.4.2.9.3 1.8.4 2.7.7.4 1.5.4 2.5.1.3-1.4.4-2.9.5-4.9-1.7-.7-4.2-1.2-6.1-1.2-3.4 0-7.1 1.7-7.1 5.9 0 3.1 2.1 4.4 4.1 5.2l2.2.9c1.8.7 3 1.5 3 2.7 0 1-.2 1.6-.7 2.1-.1.1-1.2.6-2.3.6-1.3 0-2.3-.2-3.1-.6-.2-1.2-.3-2.4-.3-3.4-.9-.3-1.7-.4-2.6-.2-.5 1.9-.7 3.6-.8 5.8m-21.7-15.8c1.9 0 2.9 1.5 2.9 2.9 0 1.3-.4 2.1-1.1 2.6-.1.1-1.3.5-2.7.5-.4 0-.9 0-1.3 0v-5.9c.7 0 1.4-.1 2.2-.1m3.4 16.8h2c1.4 0 2.6 0 3.9.1.2-.6.2-1.3.2-2-.7-.3-1.5-.5-2.3-.6l-3.3-6.7c2-1.3 3.5-3.3 3.5-5.5 0-2.7-2.2-4.9-6.2-4.9-1.6 0-3.7.1-5.6.1-1.8 0-3.3-.1-4.6-.1-.2.7-.2 1.4-.2 2 .8.1 1.7.3 2.5.6.1 1.1.1 2.3.1 4v8.6c0 .6 0 1.2-.1 1.8-.8.3-1.7.5-2.5.6 0 .7.1 1.4.2 2 1.3 0 2.7-.1 4.6-.1 1.6 0 3.3 0 4.5.1.2-.6.2-1.3.2-2-.7-.3-1.5-.5-2.4-.6-.1-.8-.1-1.6-.1-2.4v-3c.6.1 1.2.1 1.8.1h.3zm-36.4-19.4c-1.8 0-3.3-.1-4.6-.1-.2.7-.2 1.4-.2 2 .8.1 1.7.3 2.5.6.1 1.1.1 2.3.1 4v8.6c0 .6 0 1.2-.1 1.8-.8.3-1.7.5-2.5.6 0 .7.1 1.4.2 2 1.2 0 2.8-.1 4.6-.1h3.8c2 0 5 0 6.8.1l.3-.4c.2-2.4.3-4.2.3-5.9-.8-.2-1.7-.3-2.5-.2-.3 1.2-.6 2.4-1 3.6h-5.6v-5.9c1.7 0 3.4.1 5.2.1.2-.7.3-1.5.3-2.4l-.3-.3c-1.7 0-3.5.1-5.2.1v-5.4h5.2c.2 1 .3 2.1.4 3.2.8.2 1.6.2 2.6 0 .3-1.6.4-3.3.4-5.7l-.3-.4c-1.8.1-4.8.1-6.8.1zm-21.5 2.5-4.6 13.3h-.1l-.1-3-3.7-10.3 2.6-.5c0-.7 0-1.4-.2-2-1.1.1-2.9.1-4.5.1-1.8 0-3.3-.1-4.6-.1-.2.7-.2 1.4-.2 2 .8.1 1.5.3 2.3.6l6.2 17.1c1.3 0 2.8.1 3.8-.1l6.1-16.9c.8-.1 1.5-.3 2.1-.6 0-.7 0-1.4-.1-2-1 .1-2.4.1-3.7.1-1.5 0-2.8-.1-3.9-.1-.1.7-.2 1.4-.2 2zm-33.9 0c.1 1.1.1 2.3.1 4v8.6c0 .6 0 1.2-.1 1.8-.8.3-1.7.5-2.5.6 0 .7.1 1.4.2 2 1.3 0 2.7-.1 4.6-.1 1.6 0 3.3 0 4.5.1.1-.6.2-1.3.2-2-.7-.3-1.5-.5-2.4-.6-.1-.8-.1-1.6-.1-2.4v-7.9c0-1.7 0-2.9.1-4 .9-.1 1.7-.3 2.4-.6 0-.7 0-1.4-.2-2-1.1.1-2.9.1-4.5.1-1.8 0-3.3-.1-4.6-.1-.2.7-.2 1.4-.2 2 .8 0 1.6.2 2.5.5m-17.2 16.8v-12.8c0-1.7 0-2.9.1-4 .9-.1 1.7-.3 2.4-.6 0-.7 0-1.4-.2-2-1.1.1-2.7.1-3.8.1-1.3 0-2.8-.1-4-.1-.2.7-.2 1.4-.2 2 .8.1 1.7.3 2.5.6.1 1.1.1 2.3.1 4v8.9h-.1l-.7-3.2-6.9-12.1c-1-.1-2-.1-3.2-.1-1.5 0-3-.1-4.2-.1-.2.7-.2 1.4-.2 2 .8.1 1.7.3 2.5.6.1 1.1.1 2.3.1 4v8.6c0 .6 0 1.2-.1 1.8-.8.3-1.7.5-2.5.6 0 .7.1 1.4.2 2 1.2 0 2.6-.1 3.9-.1 1.2 0 2.8 0 3.9.1.1-.6.2-1.3.2-2-.7-.3-1.5-.5-2.4-.6-.1-.8-.1-1.6-.1-2.4v-10.6h.1l.7 3.2 7.1 12.6c.9-.1 3.6 0 4.8-.4m-33-12.8c0-1.7 0-2.9.1-4 .9-.1 1.7-.3 2.4-.6 0-.7 0-1.4-.2-2-1.1.1-2.7.1-3.9.1-1.4 0-2.8-.1-4-.1-.2.7-.2 1.4-.2 2 .8.1 1.7.3 2.5.6.1 1.1.1 2.3.1 4v5.6c0 2.4-.7 3.5-1 3.9s-1.5 1-2.7 1c-2.7 0-4-1.8-4-5.8v-4.7c0-1.7 0-2.9.1-4 .9-.1 1.7-.3 2.4-.6 0-.7 0-1.4-.2-2-1.1.1-2.9.1-4.5.1-1.8 0-3.3-.1-4.6-.1-.2.7-.2 1.4-.2 2 .8.1 1.7.3 2.5.6.1 1.1.1 2.3.1 4v6.1c0 5.3 2.6 7.3 7.2 7.3 6 0 8.1-3.8 8.1-8.6z"/><path d="m458.8 56.8c0-3-2.4-5.4-5.4-5.4s-5.4 2.4-5.4 5.4 2.4 5.4 5.4 5.4 5.4-2.5 5.4-5.4z"/><path d="m521.6 67.6c-2 .1-3.8.1-5.6.1-3.7 0-6.4-.1-9-.1-.4 1-.6 2.8-.6 4.3l4.2 1.1-6 18.2-.1.3h-.2v-.5-5.2l-4.3-12.7 3.8-1.1c.1-1.5.1-2.9-.3-4.3-5.3 0-8.4.1-10.3.1-2.9 0-5.2-.1-7.1-.1-.3 1-.4 2.8-.4 4.3 1.3.2 3.2.6 4.3 1.1 0 0 6.7 17.9 8.4 22.6.1.4.3.7.3.9.7 1.3 2 2.2 3.6 2.2l-.9 2.6c-1.7 5.2-5.8 6.2-11.3 6.2h-.9c-1.2 1.4-1.7 3-1.4 4.9 1.8.9 4.7 1.4 7.9 1.4 5.9 0 9.8-6.1 13.3-15.7l9-25c1.4-.2 2.9-.5 4.1-1.1 0-1.7-.1-3.1-.5-4.5z"/><path d="m458.5 86c0-7 .1-12 .3-18.4l-.8-.8c-4.7.1-9.4.8-14 2.4-.3 1.3-.1 2.6.3 3.9 1.7.2 3.4.6 5 1v15.6c0 1.3-.1 2.2-.3 3.6-1.3.5-3.3.9-5.1 1.1 0 1.5.2 3.5.4 4.3 2.4 0 5.2-.1 9.7-.1 2.7 0 7.3.1 9 .1.3-.8.4-2.9.4-4.3-1.2-.5-3.1-1-4.8-1.1-.1-1.5-.2-3.1-.2-4.8v-2.5z"/><path d="m480.2 68.9c0-7 .1-12 .2-18.4l-.8-.8c-4.7.1-9.4.8-14 2.4-.3 1.3-.1 2.6.3 3.9 1.7.2 3.4.6 5 1v32.8c0 1.3-.1 2.2-.3 3.6-1.3.5-3.3.9-5.1 1.1 0 1.5.2 3.5.4 4.3 2.4 0 5.2-.1 9.5-.1 2.9 0 7.5.1 9.2.1.3-.8.4-2.9.4-4.3-1.2-.5-3.1-1-4.8-1.1-.1-1.5-.2-3.1-.2-4.8v-19.7z"/><path d="m409.6 89.7c0 1.3-.1 2.2-.3 3.6-.9.5-2.1.8-3.2 1.1 0 1.5.1 3.5.3 4.3 2 0 4.3-.1 7.9-.1 2.1 0 6 .1 7.3.1.3-.8.4-2.9.4-4.3-.8-.4-2-.9-3.1-1.1-.1-1.5-.2-3.1-.2-4.8v-11.7c0-.8-.1-1.5-.2-2.1 1.5-.8 3.2-1.4 5-1.4 3.5 0 4 3.1 4 7.2v9.3c0 1.3-.1 2.2-.3 3.6-.9.5-2.1.8-3.2 1.1 0 1.5.1 3.5.3 4.3 2 0 4.3-.1 7.9-.1 2.6 0 7.3.1 8.9.1.3-.8.4-2.9.4-4.3-1.1-.5-3.1-1-4.8-1.1-.1-1.5-.2-3.1-.2-4.8v-11.8c0-6.9-4.7-10-9.8-10-3.9 0-7 1.7-9.8 4-1.8-2.7-5-4-8.2-4-3.5 0-6.4 1.4-8.9 3.3-.3-1.1-.7-2.1-1-2.7l-1-.5c-4.2.3-8.1 1-11.8 2.3-.3 1.3-.2 2.7.3 3.9 1.7.2 3.4.5 5 1v15.6c0 1.3-.1 2.2-.3 3.6-1.3.5-3.3.9-5.1 1.1 0 1.5.2 3.5.4 4.3 2.4 0 5.2-.1 9.7-.1 2.2 0 6 .1 7.4.1.2-.8.3-2.9.3-4.3-.8-.4-2-.9-3.1-1.1-.1-1.5-.2-3.1-.2-4.8v-14c1.5-.8 3.1-1.3 4.8-1.3 3.5 0 4 3.1 4 7.2v9.3z"/><path d="m382.9 92.2c-1.3.3-2.6.6-4.1.7-.1-1.4-.1-3.2-.1-4.4v-11.3c0-8.9-7.1-10.4-11.2-10.4-5.1 0-9.7 1.4-13.5 3.6 0 3.1.8 5.8 2.1 7.7 1.9.4 3.7.1 5.6-.8 0-1.6.1-3.3.5-4.8 1.2-.2 2.1-.3 3.3-.3 2.8 0 3.8 2.7 3.9 6.5-7.3 1.8-17.4 5.8-17.4 12.7 0 5.3 3.1 8 9.1 8 3.1 0 6.6-1.7 9.5-4 1 2.4 2.6 4 4.3 4 3.4 0 7-2.2 9.3-4.6-.1-1.1-.6-2.1-1.3-2.6zm-13.4-.9c-1.5.9-2.9 1.6-4.1 1.6-2.6 0-3.9-1.8-3.9-3.7 0-1 .5-2.6 1.2-3.2.6-.4 3.6-1.1 6.8-1.5z"/><path d="m343.3 74.6c-3.9.1-6.7.3-10.5.3v-12.9h10.4c.5 2.5.8 5.2 1 7.8 1.7.4 3.4.4 5.7 0 .8-3.8 1-7.7.8-13.2l-.8-.8c-4 .1-9.5.1-14 .1h-7.9c-4 0-7.3-.1-10.1-.1-.4 1.5-.5 3-.5 4.5 1.9.2 3.7.6 5.6 1.2.2 2.4.3 5 .3 8.8v18.8c0 1.3-.1 2.7-.3 3.9-1.9.6-3.7 1-5.6 1.2 0 1.5.1 3 .5 4.5 2.7 0 6-.1 10-.1 4.2 0 8.8 0 11.8.1.4-1.4.5-2.9.4-4.5-2.1-.6-4.5-1-7.2-1.2-.2-1.7-.3-3.5-.3-5.3v-7.3c3.8.1 6.6.1 10.6.2.4-1.5.6-3.4.7-5.2z"/><path d="m263.1 68.9c0-7 .1-12 .3-18.4l-.8-.8c-4.7.1-9.4.8-14 2.4-.3 1.3-.1 2.6.3 3.9 1.7.2 3.4.6 5 1v32.8c0 1.3-.1 2.2-.3 3.6-1.3.5-3.3.9-5.1 1.1 0 1.5.2 3.5.4 4.3 2.4 0 5.2-.1 9.5-.1 2.9 0 7.5.1 9.2.1.3-.8.4-2.9.4-4.3-1.2-.5-3.1-1-4.8-1.1-.1-1.5-.2-3.1-.2-4.8v-19.7z"/><path d="m231.9 66.8c-10 0-15.8 8.9-15.8 16.9 0 9.2 4.9 15.8 15 15.8 10 0 15.8-8.9 15.8-16.9 0-9-4.8-15.8-15-15.8zm3.3 25.6c-.5.7-2.2 1-3.2 1-4.9 0-6.6-6.5-6.6-11.2 0-3.4 1-6.4 2.3-8.1.5-.7 2.2-1 3.2-1 4.9 0 6.6 6.5 6.6 11.2 0 3.3-1 6.3-2.3 8.1z"/><path d="m198.1 61.4c.2 2.4.3 5 .3 8.8v3.1h-17.1v-3.1c0-3.8.1-6.4.3-8.8 1.9-.2 3.6-.6 5.2-1.2.1-1.6-.1-3.1-.4-4.5-2.5.1-6.3.1-9.8.1-4 0-7.3-.1-10-.1-.4 1.5-.5 3-.5 4.5 1.8.2 3.7.6 5.6 1.2.2 2.4.3 5 .3 8.8v18.8c0 1.3-.1 2.7-.3 3.9-1.9.6-3.7 1-5.6 1.2 0 1.5.1 3 .5 4.5 2.7 0 6-.1 10-.1 3.5 0 7.3 0 9.8.1.3-1.4.4-2.9.4-4.5-1.5-.6-3.3-1-5.2-1.2-.2-1.7-.3-3.5-.3-5.3v-8.3h5c3.8 0 8 .2 12.1.4v9.3c0 1.3-.1 2.7-.3 3.9-1.8.6-3.7 1-5.6 1.2 0 1.5.1 3 .5 4.5 2.7 0 6-.1 10-.1 3.5 0 7.4 0 9.8.1.3-1.4.4-2.9.4-4.5-1.5-.6-3.3-1-5.2-1.2-.2-1.7-.3-3.5-.3-5.3v-17.3c0-3.8.1-6.4.3-8.8 1.9-.2 3.6-.6 5.2-1.2.1-1.6-.1-3.1-.4-4.5-2.5.1-6.3.1-9.8.1-4 0-7.3-.1-10-.1-.4 1.5-.5 3-.5 4.5 1.9.1 3.8.6 5.6 1.1"/><path d="m304.4 67.6c-2 .1-3.8.1-5.6.1-3.7 0-6.4-.1-9-.1-.4 1-.6 2.8-.6 4.3l4.1 1.1-6 18.2-.1.3h-.2v-.5-5.2l-4.3-12.8 3.8-1.1c.1-1.5.1-2.9-.3-4.3-5.3 0-8.4.1-10.3.1-2.9 0-5.2-.1-7.1-.1-.3 1-.4 2.8-.4 4.3 1.3.2 3.2.6 4.3 1.1 0 0 6.7 17.9 8.4 22.6.1.4.2.7.3.9.7 1.3 2 2.2 3.6 2.2h.1l-.9 2.6c-1.7 5.2-5.8 6.2-11.3 6.2h-1c-1.1 1.4-1.7 3-1.4 4.9 1.8.9 4.7 1.4 7.9 1.4 5.9 0 9.8-6.1 13.3-15.7l9-25c1.4-.2 2.9-.5 4.1-1.1.1-1.6 0-3-.4-4.4z"/></g></svg>
